HIERARCHY
ROOT newVegas:Hips
{
	OFFSET 0.000000 96.479958 0.000000
	CHANNELS 6 Xposition Yposition Zposition Xrotation Yrotation Zrotation
	JOINT newVegas:Pelvis
	{
		OFFSET 0.000000 0.000000 0.000000
		CHANNELS 3 Xrotation Yrotation Zrotation
		JOINT newVegas:LeftUpLeg
		{
			OFFSET 18.735201 -5.666702 -4.541200
			CHANNELS 3 Xrotation Yrotation Zrotation
			JOINT newVegas:LeftLeg
			{
				OFFSET -0.021200 -31.938179 0.493100
				CHANNELS 3 Xrotation Yrotation Zrotation
				JOINT newVegas:LeftFoot
				{
					OFFSET 0.021200 -31.938179 -4.336299
					CHANNELS 3 Xrotation Yrotation Zrotation
					JOINT newVegas:LeftToeBase
					{
						OFFSET 0.943001 -26.722000 15.023500
						CHANNELS 3 Xrotation Yrotation Zrotation
						End Site
						{
							OFFSET 0.000000 30.670183 0.000000
						}
					}
				}
				JOINT newVegas:Left_PantLeg
				{
					OFFSET 0.663870 -9.044666 -1.108900
					CHANNELS 3 Xrotation Yrotation Zrotation
					End Site
					{
						OFFSET 1.415995 20.635357 0.000000
					}
				}
			}
		}
		JOINT newVegas:RightUpLeg
		{
			OFFSET -18.735201 -5.666702 -4.541200
			CHANNELS 3 Xrotation Yrotation Zrotation
			JOINT newVegas:RightLeg
			{
				OFFSET 0.018946 -31.938133 0.493100
				CHANNELS 3 Xrotation Yrotation Zrotation
				JOINT newVegas:RightFoot
				{
					OFFSET -0.018946 -31.938126 -4.336299
					CHANNELS 3 Xrotation Yrotation Zrotation
					JOINT newVegas:RightToeBase
					{
						OFFSET -0.943001 -26.722004 15.023500
						CHANNELS 3 Xrotation Yrotation Zrotation
						End Site
						{
							OFFSET 0.000000 30.670187 0.000000
						}
					}
				}
				JOINT newVegas:Right_PantLeg
				{
					OFFSET -0.661674 -9.044716 -1.108900
					CHANNELS 3 Xrotation Yrotation Zrotation
					End Site
					{
						OFFSET -1.415958 20.635269 0.000000
					}
				}
			}
		}
	}
	JOINT newVegas:Spine
	{
		OFFSET 0.000000 10.199997 -0.299500
		CHANNELS 3 Xrotation Yrotation Zrotation
		JOINT newVegas:Spine1
		{
			OFFSET 0.000000 11.900002 -1.516600
			CHANNELS 3 Xrotation Yrotation Zrotation
			JOINT newVegas:Spine2
			{
				OFFSET 0.000000 13.600006 -2.842500
				CHANNELS 3 Xrotation Yrotation Zrotation
				JOINT newVegas:Neck
				{
					OFFSET 0.000000 9.624100 -2.890100
					CHANNELS 3 Xrotation Yrotation Zrotation
					JOINT newVegas:Head
					{
						OFFSET 0.000000 14.068802 -1.351900
						CHANNELS 3 Xrotation Yrotation Zrotation
						JOINT newVegas:Hair_Back
						{
							OFFSET 0.000000 3.231903 -17.524799
							CHANNELS 3 Xrotation Yrotation Zrotation
							End Site
							{
								OFFSET 0.000000 19.849884 0.000000
							}
						}
						JOINT newVegas:Hair_Front
						{
							OFFSET 0.000000 31.260406 4.573800
							CHANNELS 3 Xrotation Yrotation Zrotation
							JOINT newVegas:Hair_Front1
							{
								OFFSET 0.000000 2.284103 11.993300
								CHANNELS 3 Xrotation Yrotation Zrotation
								JOINT newVegas:Hair_Front2
								{
									OFFSET 0.000000 2.284103 11.993300
									CHANNELS 3 Xrotation Yrotation Zrotation
									End Site
									{
										OFFSET 0.000000 12.208862 0.000000
									}
								}
							}
						}
						JOINT newVegas:Jowel
						{
							OFFSET 0.000000 -7.458206 6.864100
							CHANNELS 3 Xrotation Yrotation Zrotation
							End Site
							{
								OFFSET 0.000000 19.849884 0.000000
							}
						}
					}
				}
				JOINT newVegas:LeftShoulder
				{
					OFFSET 15.263000 10.923401 -0.547700
					CHANNELS 3 Xrotation Yrotation Zrotation
					JOINT newVegas:LeftArm
					{
						OFFSET 25.438599 -2.830597 -13.032500
						CHANNELS 3 Xrotation Yrotation Zrotation
						JOINT newVegas:LeftForeArm
						{
							OFFSET 29.960503 0.000000 0.000000
							CHANNELS 3 Xrotation Yrotation Zrotation
							JOINT newVegas:LeftHand
							{
								OFFSET 27.849251 0.000000 0.000000
								CHANNELS 3 Xrotation Yrotation Zrotation
								JOINT newVegas:LeftHandThumb1
								{
									OFFSET 4.487587 -3.305161 6.305391
									CHANNELS 3 Xrotation Yrotation Zrotation
									JOINT newVegas:LeftHandThumb2
									{
										OFFSET 5.480453 -3.164139 3.164143
										CHANNELS 3 Xrotation Yrotation Zrotation
										JOINT newVegas:LeftHandThumb3
										{
											OFFSET 5.159721 -2.978973 2.978967
											CHANNELS 3 Xrotation Yrotation Zrotation
											End Site
											{
												OFFSET 2.494507 5.926697 1.738678
											}
										}
									}
								}
								JOINT newVegas:LeftHandIndex1
								{
									OFFSET 18.578728 -0.527832 5.208049
									CHANNELS 3 Xrotation Yrotation Zrotation
									JOINT newVegas:LeftHandIndex2
									{
										OFFSET 3.192009 0.000000 0.000000
										CHANNELS 3 Xrotation Yrotation Zrotation
										JOINT newVegas:LeftHandIndex3
										{
											OFFSET 3.835129 0.000000 0.000000
											CHANNELS 3 Xrotation Yrotation Zrotation
											End Site
											{
												OFFSET -0.034599 3.816971 0.371180
											}
										}
									}
								}
								JOINT newVegas:LeftHandMiddle1
								{
									OFFSET 18.476105 0.000000 0.000000
									CHANNELS 3 Xrotation Yrotation Zrotation
									JOINT newVegas:LeftHandMiddle2
									{
										OFFSET 3.324875 0.000000 0.000000
										CHANNELS 3 Xrotation Yrotation Zrotation
										JOINT newVegas:LeftHandMiddle3
										{
											OFFSET 4.596550 0.000000 0.000000
											CHANNELS 3 Xrotation Yrotation Zrotation
											End Site
											{
												OFFSET 0.057701 4.578827 0.399218
											}
										}
									}
								}
								JOINT newVegas:LeftHandRing1
								{
									OFFSET 17.732719 0.121887 -4.201567
									CHANNELS 3 Xrotation Yrotation Zrotation
									JOINT newVegas:LeftHandRing2
									{
										OFFSET 2.733170 0.000000 0.000000
										CHANNELS 3 Xrotation Yrotation Zrotation
										JOINT newVegas:LeftHandRing3
										{
											OFFSET 3.178268 0.000000 0.000000
											CHANNELS 3 Xrotation Yrotation Zrotation
											End Site
											{
												OFFSET 0.119102 3.170624 0.185394
											}
										}
									}
								}
								JOINT newVegas:LeftHandPinky1
								{
									OFFSET 15.989624 -0.606689 -7.535461
									CHANNELS 3 Xrotation Yrotation Zrotation
									JOINT newVegas:LeftHandPinky2
									{
										OFFSET 2.538986 0.000000 0.000000
										CHANNELS 3 Xrotation Yrotation Zrotation
										JOINT newVegas:LeftHandPinky3
										{
											OFFSET 2.593102 0.000000 0.000000
											CHANNELS 3 Xrotation Yrotation Zrotation
											End Site
											{
												OFFSET -0.150902 2.584198 0.152708
											}
										}
									}
								}
							}
							JOINT newVegas:Left_Sleeve
							{
								OFFSET 0.267448 -0.649796 0.577675
								CHANNELS 3 Xrotation Yrotation Zrotation
								End Site
								{
									OFFSET 0.000000 15.991241 0.000000
								}
							}
							JOINT newVegas:Left_CapeC
							{
								OFFSET 15.715958 -8.608795 -6.935905
								CHANNELS 3 Xrotation Yrotation Zrotation
								JOINT newVegas:Left_CapeC1
								{
									OFFSET 0.000000 -8.688499 0.000000
									CHANNELS 3 Xrotation Yrotation Zrotation
									End Site
									{
										OFFSET 0.000000 8.688499 0.000000
									}
								}
							}
						}
						JOINT newVegas:Left_CapeB
						{
							OFFSET 26.118385 -8.608795 -7.079235
							CHANNELS 3 Xrotation Yrotation Zrotation
							JOINT newVegas:Left_CapeB1
							{
								OFFSET 0.000000 -8.688499 0.000000
								CHANNELS 3 Xrotation Yrotation Zrotation
								End Site
								{
									OFFSET 0.000000 8.688499 0.000000
								}
							}
						}
						JOINT newVegas:Left_CapeA
						{
							OFFSET 5.115639 -8.608795 -10.395809
							CHANNELS 3 Xrotation Yrotation Zrotation
							JOINT newVegas:Left_CapeA1
							{
								OFFSET 0.000000 -8.688499 0.000000
								CHANNELS 3 Xrotation Yrotation Zrotation
								End Site
								{
									OFFSET 0.000000 8.688499 0.000000
								}
							}
						}
					}
				}
				JOINT newVegas:RightShoulder
				{
					OFFSET -15.263000 10.923401 -0.547700
					CHANNELS 3 Xrotation Yrotation Zrotation
					JOINT newVegas:RightArm
					{
						OFFSET -25.438599 -2.830597 -13.032500
						CHANNELS 3 Xrotation Yrotation Zrotation
						JOINT newVegas:RightForeArm
						{
							OFFSET -29.960503 0.000000 0.000000
							CHANNELS 3 Xrotation Yrotation Zrotation
							JOINT newVegas:RightHand
							{
								OFFSET -27.849251 0.000000 0.000000
								CHANNELS 3 Xrotation Yrotation Zrotation
								JOINT newVegas:RightHandThumb1
								{
									OFFSET -4.487587 -3.305161 6.305391
									CHANNELS 3 Xrotation Yrotation Zrotation
									JOINT newVegas:RightHandThumb2
									{
										OFFSET -5.480453 -3.164139 3.164143
										CHANNELS 3 Xrotation Yrotation Zrotation
										JOINT newVegas:RightHandThumb3
										{
											OFFSET -5.159721 -2.978973 2.978967
											CHANNELS 3 Xrotation Yrotation Zrotation
											End Site
											{
												OFFSET -2.494507 5.926697 1.738678
											}
										}
									}
								}
								JOINT newVegas:RightHandIndex1
								{
									OFFSET -18.578728 -0.527832 5.208049
									CHANNELS 3 Xrotation Yrotation Zrotation
									JOINT newVegas:RightHandIndex2
									{
										OFFSET -3.192009 0.000000 0.000000
										CHANNELS 3 Xrotation Yrotation Zrotation
										JOINT newVegas:RightHandIndex3
										{
											OFFSET -3.835129 0.000000 0.000000
											CHANNELS 3 Xrotation Yrotation Zrotation
											End Site
											{
												OFFSET 0.034599 3.816971 0.371180
											}
										}
									}
								}
								JOINT newVegas:RightHandMiddle1
								{
									OFFSET -18.476105 0.000000 0.000000
									CHANNELS 3 Xrotation Yrotation Zrotation
									JOINT newVegas:RightHandMiddle2
									{
										OFFSET -3.324875 0.000000 0.000000
										CHANNELS 3 Xrotation Yrotation Zrotation
										JOINT newVegas:RightHandMiddle3
										{
											OFFSET -4.596550 0.000000 0.000000
											CHANNELS 3 Xrotation Yrotation Zrotation
											End Site
											{
												OFFSET -0.057701 4.578827 0.399218
											}
										}
									}
								}
								JOINT newVegas:RightHandRing1
								{
									OFFSET -17.732719 0.121887 -4.201567
									CHANNELS 3 Xrotation Yrotation Zrotation
									JOINT newVegas:RightHandRing2
									{
										OFFSET -2.733170 0.000000 0.000000
										CHANNELS 3 Xrotation Yrotation Zrotation
										JOINT newVegas:RightHandRing3
										{
											OFFSET -3.178268 0.000000 0.000000
											CHANNELS 3 Xrotation Yrotation Zrotation
											End Site
											{
												OFFSET -0.119102 3.170624 0.185394
											}
										}
									}
								}
								JOINT newVegas:RightHandPinky1
								{
									OFFSET -15.989624 -0.606689 -7.535461
									CHANNELS 3 Xrotation Yrotation Zrotation
									JOINT newVegas:RightHandPinky2
									{
										OFFSET -2.538986 0.000000 0.000000
										CHANNELS 3 Xrotation Yrotation Zrotation
										JOINT newVegas:RightHandPinky3
										{
											OFFSET -2.593102 0.000000 0.000000
											CHANNELS 3 Xrotation Yrotation Zrotation
											End Site
											{
												OFFSET 0.150902 2.584198 0.152708
											}
										}
									}
								}
							}
							JOINT newVegas:Right_CapeC
							{
								OFFSET -15.715958 -8.608795 -6.935905
								CHANNELS 3 Xrotation Yrotation Zrotation
								JOINT newVegas:Right_CapeC1
								{
									OFFSET 0.000000 -8.688499 0.000000
									CHANNELS 3 Xrotation Yrotation Zrotation
									End Site
									{
										OFFSET 0.000000 8.688499 0.000000
									}
								}
							}
							JOINT newVegas:Right_Sleeve
							{
								OFFSET -0.267448 -0.649994 0.577675
								CHANNELS 3 Xrotation Yrotation Zrotation
								End Site
								{
									OFFSET 0.000000 15.991302 0.000000
								}
							}
						}
						JOINT newVegas:Right_CapeA
						{
							OFFSET -5.115540 -8.608795 -10.395824
							CHANNELS 3 Xrotation Yrotation Zrotation
							JOINT newVegas:Right_CapeA1
							{
								OFFSET 0.000000 -8.688499 0.000000
								CHANNELS 3 Xrotation Yrotation Zrotation
								End Site
								{
									OFFSET 0.000000 8.688499 0.000000
								}
							}
						}
						JOINT newVegas:Right_CapeB
						{
							OFFSET -26.118187 -8.608795 -7.079266
							CHANNELS 3 Xrotation Yrotation Zrotation
							JOINT newVegas:Right_CapeB1
							{
								OFFSET 0.000000 -8.688499 0.000000
								CHANNELS 3 Xrotation Yrotation Zrotation
								End Site
								{
									OFFSET 0.000000 8.688499 0.000000
								}
							}
						}
					}
				}
				JOINT newVegas:Left_Collar
				{
					OFFSET 18.625099 8.655502 8.828100
					CHANNELS 3 Xrotation Yrotation Zrotation
					JOINT newVegas:Left_Collar1
					{
						OFFSET 14.783401 10.540405 -1.259500
						CHANNELS 3 Xrotation Yrotation Zrotation
						End Site
						{
							OFFSET 0.000000 18.199875 0.000000
						}
					}
				}
				JOINT newVegas:Collar_Back
				{
					OFFSET 0.000000 15.630707 -20.132601
					CHANNELS 3 Xrotation Yrotation Zrotation
					End Site
					{
						OFFSET 0.000000 22.523010 0.000000
					}
				}
				JOINT newVegas:Left_Peck
				{
					OFFSET 17.239599 -5.132599 25.482599
					CHANNELS 3 Xrotation Yrotation Zrotation
					End Site
					{
						OFFSET 0.000000 22.523010 0.000000
					}
				}
				JOINT newVegas:Right_Peck
				{
					OFFSET -17.239599 -5.132202 25.482599
					CHANNELS 3 Xrotation Yrotation Zrotation
					End Site
					{
						OFFSET 0.000000 22.523010 0.000000
					}
				}
				JOINT newVegas:Right_Collar
				{
					OFFSET -18.625099 8.655792 8.828100
					CHANNELS 3 Xrotation Yrotation Zrotation
					JOINT newVegas:Right_Collar1
					{
						OFFSET -14.783401 10.539993 -1.259500
						CHANNELS 3 Xrotation Yrotation Zrotation
						End Site
						{
							OFFSET 0.000000 18.199631 0.000000
						}
					}
				}
			}
		}
		JOINT newVegas:Belly
		{
			OFFSET 0.000000 -6.540398 9.014299
			CHANNELS 3 Xrotation Yrotation Zrotation
			End Site
			{
				OFFSET 0.000000 11.566666 0.000000
			}
		}
	}
	JOINT newVegas:ElvisFacialAnim_Joint
	{
		OFFSET 1.000000 -95.330101 -8.825800
		CHANNELS 3 Xrotation Yrotation Zrotation
		End Site
		{
			OFFSET 0.000000 35.315800 0.000000
		}
	}
}
MOTION
Frames: 4
Frame Time: 0.016667
0.254312 55.875648 10.495744 0.145579 0.090586 0.907408 0.000000 -0.000000 -0.000000 -100.888868 -11.098338 12.490933 84.226642 3.936466 -0.120317 18.524178 -7.648962 -7.651208 -0.000000 -0.000001 0.000000 -0.000002 -0.000001 -0.000000 -102.685658 12.052968 -8.143057 85.274051 -3.469075 -1.480388 19.297779 0.869904 9.046144 -0.000000 0.000001 0.000000 0.000001 -0.000000 -0.000001 10.430366 0.096007 -1.528295 -0.199257 0.213326 -0.355463 -0.199585 0.248526 -0.300880 -0.401922 -0.512719 0.190457 -0.401920 -0.512719 0.190456 0.000001 0.000000 0.000000 -0.401919 -0.512719 0.190457 -0.401918 -0.512719 0.190456 -0.000001 0.000000 0.000000 0.000001 0.000000 -0.000000 0.823521 -15.262029 -7.868751 4.746712 -21.216449 -54.862241 0.000028 -62.197478 0.000032 31.062959 4.315233 41.770234 6.610623 1.798259 20.801502 2.716381 20.172574 -24.389154 0.000003 -0.000001 0.000001 -0.235309 2.798406 -26.913107 0.396817 2.121275 -21.189311 -0.000001 0.000000 0.000000 1.299153 7.334324 -16.511079 0.329937 1.940082 -19.302249 0.000003 -0.000001 0.000003 1.797296 9.807927 -14.184134 0.205915 1.541081 -15.220192 0.000000 0.000001 0.000004 2.041318 10.867597 -13.918909 0.168508 1.396405 -13.761347 -0.000000 -0.000003 -0.000004 -0.000003 -0.000004 0.000003 -0.000003 -0.000004 0.000003 -0.000003 -0.000004 0.000003 0.000002 0.000000 -0.000001 0.000002 -0.000000 -0.000002 0.000002 0.000000 -0.000001 0.000001 0.000001 -0.000001 3.171093 -4.378724 8.782886 -3.950242 37.253375 63.733636 -0.000023 55.137945 0.000028 43.537306 4.741018 -36.277942 -9.383512 -1.613348 -17.604717 3.557066 -24.337028 34.656855 0.000003 -0.000006 0.000004 2.957831 1.012878 13.529997 0.472463 -2.045705 26.006736 -0.000001 0.000002 0.000003 0.105538 -3.664960 2.525402 0.584983 -2.261673 29.000444 0.000001 0.000003 0.000002 0.456451 -7.644276 4.306128 0.107467 -0.995723 12.318846 -0.000002 0.000001 -0.000001 -11.162315 -10.227900 7.169806 0.029119 -0.520519 6.403071 0.000001 0.000003 0.000001 -0.000003 0.000000 0.000001 -0.000002 0.000002 0.000000 -0.000003 -0.000000 0.000001 -0.000000 -0.000001 -0.000001 -0.000000 -0.000002 -0.000001 -0.000000 -0.000001 -0.000001 -0.000000 -0.000002 -0.000001 0.000000 -0.000000 0.000000 0.000000 -0.000000 0.000000 0.000000 -0.000000 0.000000 0.000000 -0.000000 0.000000 0.000000 -0.000000 0.000000 0.000000 -0.000000 0.000000 0.000000 -0.000000 0.000000 0.000001 -0.000000 0.000000 0.000000 -0.000000 -0.000000 
0.241636 55.958611 10.432706 -0.412933 0.071364 1.000801 -0.000000 0.000000 0.000000 -100.208629 -10.948634 12.560677 84.127228 3.919848 -0.119303 18.501113 -7.645218 -7.626762 0.000000 0.000000 -0.000000 -0.000001 -0.000003 0.000001 -102.136989 12.005774 -8.230251 85.242871 -3.358399 -1.483233 19.306783 0.849982 8.920331 -0.000000 0.000000 0.000000 0.000003 -0.000000 -0.000000 10.212707 0.066525 -1.524024 0.247318 0.210143 -0.363243 0.247050 0.242483 -0.311429 -0.346660 -0.501894 0.188917 -0.346592 -0.501894 0.188918 -0.000000 0.000000 0.000000 -0.346742 -0.501898 0.188917 -0.346597 -0.501894 0.188917 0.000000 -0.000000 0.000000 -0.000000 0.000000 0.000000 0.823218 -15.329303 -7.716561 4.455912 -21.455912 -54.700864 0.000020 -61.301235 0.000018 31.122368 4.160823 41.654394 7.239347 2.016998 20.046614 2.611783 19.816542 -24.507489 -0.000000 -0.000000 -0.000005 -0.214984 2.733559 -26.352487 0.412479 2.161182 -21.608034 -0.000000 -0.000001 -0.000000 1.260151 7.277769 -16.156645 0.350259 1.997077 -19.893279 -0.000002 0.000001 -0.000002 1.754440 9.708188 -14.032351 0.229574 1.625497 -16.076486 -0.000004 -0.000001 0.000001 1.966973 10.727165 -13.936869 0.189201 1.478269 -14.585673 -0.000001 -0.000003 -0.000004 0.000002 0.000003 -0.000000 0.000002 0.000003 -0.000000 0.000001 0.000003 0.000000 0.000003 -0.000001 -0.000001 0.000004 -0.000001 -0.000001 0.000003 -0.000001 -0.000001 0.000002 0.000000 -0.000002 3.130741 -4.188132 9.128581 -3.788732 37.492435 62.416659 -0.000012 54.701435 0.000023 38.426105 6.434204 -35.338781 -9.061923 -1.287311 -15.921451 3.457697 -24.287004 33.909977 0.000001 -0.000003 0.000001 2.928268 1.054581 13.023782 0.477731 -2.056472 26.153955 0.000001 0.000002 0.000001 0.100441 -3.662353 2.284185 0.616273 -2.317145 29.783293 0.000002 -0.000002 -0.000002 0.445617 -7.590657 4.232010 0.120851 -1.055169 13.066942 -0.000001 0.000002 -0.000001 -11.183153 -10.282690 7.459233 0.034670 -0.567835 6.987813 0.000003 0.000003 -0.000002 -0.000002 0.000003 -0.000003 -0.000000 -0.000000 -0.000001 -0.000002 0.000003 -0.000005 -0.000002 -0.000001 0.000000 -0.000002 -0.000001 0.000001 -0.000002 -0.000001 0.000000 -0.000002 -0.000001 0.000001 0.000000 -0.000000 0.000000 0.000000 -0.000000 0.000000 0.000000 -0.000000 0.000000 0.000000 -0.000000 0.000000 0.000000 -0.000000 0.000000 0.000000 -0.000000 0.000000 0.000000 -0.000000 0.000000 -0.000001 -0.000000 -0.000000 -0.000000 0.000000 0.000000 
0.232114 56.047691 10.373739 -0.955807 0.061957 1.089737 0.000000 0.000000 0.000000 -99.540643 -10.787994 12.617393 84.014557 3.901379 -0.117399 18.482596 -7.640296 -7.582347 -0.000000 -0.000000 -0.000000 0.000001 -0.000001 0.000001 -101.584659 11.966004 -8.324937 85.212136 -3.258090 -1.485790 19.301234 0.831124 8.807753 -0.000000 -0.000000 0.000000 -0.000000 0.000000 -0.000001 10.001990 0.041781 -1.516995 0.733888 0.214279 -0.373962 0.733708 0.243699 -0.324692 -0.305673 -0.492072 0.192361 -0.305670 -0.492072 0.192362 0.000001 0.000000 0.000000 -0.305676 -0.492073 0.192362 -0.305607 -0.492072 0.192362 -0.000001 0.000000 0.000000 0.000001 0.000000 0.000000 0.826525 -15.600728 -7.588858 4.308928 -21.403928 -54.419761 -0.000015 -61.023765 -0.000026 30.015437 3.616506 41.129562 7.896441 2.237067 19.250656 2.502430 19.443486 -24.632768 0.000001 -0.000000 -0.000005 -0.192908 2.666143 -25.764488 0.429195 2.202889 -22.047202 -0.000001 -0.000001 -0.000001 1.219828 7.218218 -15.785021 0.372182 2.056615 -20.513198 0.000000 0.000001 -0.000002 1.710067 9.602932 -13.874532 0.255668 1.713398 -16.971927 -0.000000 -0.000002 -0.000001 1.888937 10.579972 -13.956018 0.212101 1.563641 -15.448802 -0.000002 -0.000003 -0.000001 -0.000001 -0.000002 0.000002 -0.000001 -0.000002 0.000002 -0.000002 -0.000001 0.000002 0.000001 0.000001 -0.000000 0.000001 0.000001 -0.000002 0.000001 0.000001 -0.000000 -0.000000 0.000002 -0.000001 3.082115 -3.976041 9.440668 -3.601789 37.650762 61.027419 0.000008 54.399021 -0.000007 33.444247 7.545264 -34.227273 -8.709546 -0.934997 -14.170903 3.357928 -24.234210 33.129150 0.000001 0.000001 -0.000001 2.897931 1.099086 12.492950 0.483287 -2.067715 26.308366 -0.000001 0.000000 0.000000 0.095053 -3.659464 2.031257 0.649814 -2.374750 30.602663 -0.000000 -0.000000 -0.000002 0.434444 -7.534137 4.154919 0.135693 -1.117124 13.849616 -0.000001 0.000004 -0.000001 -11.204857 -10.340606 7.762725 0.041021 -0.617381 7.601102 0.000002 -0.000000 0.000000 -0.000003 -0.000001 0.000003 -0.000001 -0.000004 0.000002 -0.000003 -0.000001 0.000001 0.000001 0.000000 -0.000001 0.000001 0.000001 -0.000001 0.000001 0.000000 -0.000001 0.000001 -0.000000 -0.000001 0.000001 0.000000 -0.000000 0.000001 0.000000 -0.000000 0.000001 0.000000 -0.000000 0.000001 0.000000 -0.000000 0.000001 0.000000 -0.000000 0.000001 0.000000 -0.000000 0.000001 0.000000 -0.000000 0.000000 0.000000 -0.000000 0.000000 0.000000 0.000000 
0.226735 56.141090 10.312611 -1.483207 0.057010 1.176814 0.000000 -0.000000 -0.000000 -98.882841 -10.617295 12.664015 83.885460 3.889989 -0.115163 18.472561 -7.634563 -7.525217 0.000000 -0.000001 0.000000 0.000002 0.000001 0.000001 -101.032636 11.930725 -8.423971 85.165868 -3.161850 -1.488549 19.298727 0.813656 8.699401 -0.000000 -0.000001 0.000000 0.000002 0.000000 -0.000001 9.796479 0.019274 -1.508513 1.248923 0.222378 -0.387395 1.248840 0.248826 -0.340488 -0.273661 -0.482473 0.197713 -0.273661 -0.482473 0.197714 -0.000001 0.000000 0.000000 -0.273735 -0.482474 0.197713 -0.273519 -0.482471 0.197715 -0.000001 -0.000000 0.000000 -0.000001 0.000000 0.000000 0.832471 -15.979337 -7.489318 4.238263 -21.173436 -54.038879 -0.000018 -61.236683 -0.000020 28.124122 2.741991 40.412327 8.575150 2.451616 18.424806 2.389371 19.058781 -24.763360 -0.000001 0.000001 -0.000003 -0.169352 2.597104 -25.157458 0.446791 2.245846 -22.500638 -0.000002 -0.000001 0.000000 1.178818 7.156435 -15.401462 0.395501 2.117828 -21.153214 -0.000002 0.000002 -0.000002 1.664871 9.493849 -13.712403 0.283999 1.803602 -17.895372 -0.000003 -0.000004 0.000002 1.808329 10.428081 -13.976042 0.237083 1.651357 -16.339460 0.000001 -0.000005 0.000002 0.000000 0.000001 -0.000002 0.000000 0.000001 -0.000002 -0.000001 0.000001 -0.000002 -0.000000 0.000000 -0.000001 0.000000 0.000000 -0.000000 -0.000000 0.000000 -0.000001 -0.000001 0.000000 -0.000001 3.026187 -3.737178 9.731911 -3.408157 37.697593 59.557556 -0.000033 54.333383 0.000048 28.528904 8.185324 -32.859880 -8.343285 -0.556700 -12.373144 3.258090 -24.179426 32.324369 0.000001 -0.000001 -0.000004 2.867304 1.145872 11.945004 0.489048 -2.079342 26.467786 0.000000 0.000000 0.000003 0.089397 -3.656426 1.770178 0.685270 -2.433664 31.448052 0.000000 -0.000000 -0.000000 0.423075 -7.475551 4.075725 0.151883 -1.180829 14.656894 -0.000001 0.000004 0.000002 -11.227117 -10.400878 8.075994 0.048116 -0.668454 8.234242 0.000000 0.000002 -0.000001 -0.000001 0.000003 -0.000002 -0.000001 -0.000000 0.000001 -0.000001 0.000003 -0.000001 0.000001 0.000002 -0.000000 0.000001 0.000003 -0.000000 0.000001 0.000002 -0.000000 0.000001 0.000003 -0.000000 -0.000000 -0.000000 0.000000 -0.000000 -0.000000 0.000000 -0.000000 -0.000000 0.000000 -0.000000 -0.000000 0.000000 -0.000000 -0.000000 0.000000 -0.000000 -0.000000 0.000000 -0.000000 -0.000000 0.000000 0.000000 -0.000000 -0.000000 0.000000 -0.000000 -0.000000 
